<?xml version="1.0" encoding="UTF-8" standalone="no"?>
<svg
        xmlns:dc="http://purl.org/dc/elements/1.1/"
        xmlns:cc="http://creativecommons.org/ns#"
        xmlns:rdf="http://www.w3.org/1999/02/22-rdf-syntax-ns#"
        xmlns:sodipodi="http://sodipodi.sourceforge.net/DTD/sodipodi-0.dtd"
        xmlns:inkscape="http://www.inkscape.org/namespaces/inkscape"
        xmlns="http://www.w3.org/2000/svg"
        sodipodi:docname="pikacloud.svg"
        inkscape:version="1.0 (4035a4fb49, 2020-05-01)"
        id="svg2550"
        version="1.1"
        viewBox="0 0 210 297"
        height="297mm"
        width="210mm">
    <defs
            id="defs2544"/>
    <sodipodi:namedview
            inkscape:snap-bbox-midpoints="true"
            inkscape:snap-bbox-edge-midpoints="true"
            inkscape:bbox-nodes="true"
            inkscape:bbox-paths="true"
            inkscape:snap-bbox="true"
            inkscape:window-maximized="1"
            inkscape:window-y="0"
            inkscape:window-x="0"
            inkscape:window-height="1019"
            inkscape:window-width="1920"
            showgrid="false"
            inkscape:document-rotation="0"
            inkscape:current-layer="layer1"
            inkscape:document-units="mm"
            inkscape:cy="525.68965"
            inkscape:cx="395.81581"
            inkscape:zoom="0.49497475"
            inkscape:pageshadow="2"
            inkscape:pageopacity="0.0"
            borderopacity="1.0"
            bordercolor="#666666"
            pagecolor="#ffffff"
            id="base"/>
    <metadata
            id="metadata2547">
        <rdf:RDF>
            <cc:Work
                    rdf:about="">
                <dc:format>image/svg+xml</dc:format>
                <dc:type
                        rdf:resource="http://purl.org/dc/dcmitype/StillImage"/>
                <dc:title></dc:title>
            </cc:Work>
        </rdf:RDF>
    </metadata>
    <g
            id="layer1"
            inkscape:groupmode="layer"
            inkscape:label="Warstwa 1">
        <path
                inkscape:export-ydpi="103.34703"
                inkscape:export-xdpi="103.34703"
                inkscape:export-filename="/home/awrobel/pikacloud_large.png"
                id="path2160-1-1-9-2"
                style="color:#000000;clip-rule:nonzero;display:inline;overflow:visible;visibility:visible;opacity:1;isolation:auto;color-interpolation:sRGB;color-interpolation-filters:linearRGB;solid-color:#000000;solid-opacity:1;fill:#3f51b5;fill-opacity:1;fill-rule:nonzero;stroke:none;stroke-width:0.0842168;stroke-linecap:round;stroke-linejoin:bevel;stroke-miterlimit:4;stroke-dasharray:none;stroke-dashoffset:0;stroke-opacity:1;marker:none;color-rendering:auto;image-rendering:auto;shape-rendering:auto;text-rendering:auto;enable-background:accumulate"
                d="m 61.271182,28.388194 h -3.67e-4 a 29.564559,31.445835 0 0 0 -23.120678,11.854836 22.792745,25.561876 0 0 0 -1.878297,-0.087 22.792745,25.561876 0 0 0 -22.793067,25.56181 22.792745,25.561876 0 0 0 22.621921,25.56111 H 36.27184 87.841957 A 18.232268,20.118705 0 0 0 106.07427,71.161181 18.232268,20.118705 0 0 0 89.689477,51.146168 29.564559,31.445835 0 0 0 61.275837,28.388194 a 29.564559,31.445835 0 0 0 -0.0046,0 z m 2.095272,26.200565 v 13.558762 c 0.454923,-0.474703 0.939753,-0.979049 1.454016,-1.513092 0.514262,-0.553823 1.018611,-1.097912 1.513094,-1.631956 0.494482,-0.553823 0.959076,-1.078058 1.394221,-1.572541 0.454925,-0.514245 0.840729,-0.959324 1.157198,-1.335146 h 4.24282 c -0.988966,1.107647 -2.037415,2.255129 -3.145057,3.441877 -1.087862,1.186767 -2.185646,2.343818 -3.293288,3.471244 0.59338,0.494484 1.21663,1.097491 1.869348,1.809554 0.652716,0.692268 1.285548,1.434062 1.898706,2.225228 0.613158,0.791188 1.186717,1.582313 1.720758,2.373479 0.534042,0.791187 0.979117,1.523032 1.335145,2.195532 H 69.35975 C 69.003721,76.998536 68.588462,76.355765 68.113757,75.683265 67.658833,75.010778 67.164065,74.358072 66.630023,73.725133 66.095982,73.092187 65.552239,72.498748 64.998417,71.944941 64.444598,71.371338 63.900496,70.886865 63.366455,70.491285 V 77.6117 H 59.776708 V 55.182051 Z m -9.950753,0.741523 c 0.593381,0 1.107665,0.198039 1.54281,0.593622 0.435147,0.395582 0.652715,0.939324 0.652715,1.631607 0,0.672503 -0.217568,1.206657 -0.652715,1.602258 -0.435145,0.395583 -0.949429,0.593273 -1.54281,0.593273 -0.613157,0 -1.137024,-0.19769 -1.572169,-0.593273 -0.435145,-0.395601 -0.652714,-0.929755 -0.652714,-1.602258 0,-0.692283 0.217569,-1.236025 0.652714,-1.631607 0.435145,-0.395583 0.959012,-0.593622 1.572169,-0.593622 z m -14.243697,1.513092 c 2.986676,0 5.271328,0.544089 6.853674,1.631956 1.602124,1.087866 2.403189,2.789024 2.403189,5.103199 0,1.206529 -0.217568,2.244679 -0.652713,3.114984 -0.415366,0.850505 -1.028676,1.552908 -1.839629,2.106731 -0.810951,0.534025 -1.799771,0.929425 -2.96675,1.186544 -1.16698,0.257147 -2.502209,0.385617 -4.005436,0.385617 H 37.094991 V 77.6117 H 33.357015 V 57.347848 c 0.870289,-0.197801 1.829294,-0.32627 2.877597,-0.385611 1.068083,-0.07912 2.047322,-0.118863 2.937392,-0.118863 z m 0.2671,3.234195 c -0.949406,0 -1.730953,0.02946 -2.344113,0.0888 v 7.001902 h 1.809912 c 1.799917,0 3.184479,-0.247022 4.153666,-0.741505 0.969186,-0.514263 1.453658,-1.473624 1.453658,-2.877953 0,-0.672503 -0.128483,-1.236483 -0.385614,-1.691406 -0.25713,-0.454923 -0.613119,-0.810908 -1.068044,-1.068049 -0.454926,-0.257123 -0.998668,-0.434941 -1.631606,-0.533842 -0.613158,-0.118662 -1.275803,-0.177947 -1.987859,-0.177947 z m 41.840997,1.631607 c 1.18676,0 2.185519,0.14836 2.996466,0.445061 0.810955,0.296682 1.454079,0.711954 1.928783,1.245979 0.494487,0.534043 0.840537,1.186748 1.038327,1.958152 0.21757,0.751605 0.32618,1.582496 0.32618,2.492342 v 9.405097 c -0.55382,0.118659 -1.394279,0.257085 -2.521703,0.415327 -1.107643,0.178022 -2.363722,0.267096 -3.768053,0.267096 -0.929627,0 -1.780027,-0.08907 -2.55142,-0.267096 -0.771393,-0.178023 -1.434037,-0.46479 -1.987859,-0.86039 -0.534041,-0.39558 -0.959241,-0.90986 -1.275709,-1.542806 -0.29669,-0.632945 -0.44505,-1.414121 -0.44505,-2.343741 0,-0.890086 0.167878,-1.641822 0.504126,-2.254965 0.356028,-0.613165 0.830918,-1.107574 1.424298,-1.483378 0.59338,-0.3956 1.275902,-0.67243 2.047295,-0.83067 0.791172,-0.178002 1.611757,-0.267095 2.462267,-0.267095 0.395586,0 0.811206,0.02981 1.24635,0.08915 0.435148,0.03954 0.899737,0.118332 1.394222,0.23703 v -0.593273 c 0,-0.415363 -0.04933,-0.810744 -0.14823,-1.186565 -0.0989,-0.375803 -0.277067,-0.702329 -0.5342,-0.979251 -0.237352,-0.296682 -0.563528,-0.524199 -0.978892,-0.682421 -0.395586,-0.15824 -0.899934,-0.237397 -1.513094,-0.237397 -0.830731,0 -1.592401,0.05929 -2.284677,0.177947 -0.692277,0.11868 -1.255897,0.257471 -1.691041,0.415693 l -0.445048,-2.907668 c 0.454923,-0.158241 1.11757,-0.316536 1.98786,-0.474777 0.870289,-0.158222 1.799836,-0.237379 2.788802,-0.237379 z m -29.644234,0.38561 h 3.589747 V 77.6117 h -3.589747 z m 30.356383,8.574446 c -0.395585,0 -0.801267,0.02979 -1.216632,0.08915 -0.395586,0.05931 -0.761513,0.167935 -1.097764,0.326177 -0.316468,0.158241 -0.573432,0.385734 -0.771226,0.682436 -0.197793,0.276907 -0.296818,0.63289 -0.296818,1.068032 0,0.850524 0.267262,1.443949 0.801303,1.780206 0.534042,0.316463 1.255959,0.47476 2.165807,0.47476 1.107641,0 1.948105,-0.05924 2.521701,-0.177947 v -3.975717 c -0.19779,-0.05938 -0.48457,-0.11861 -0.860376,-0.177947 -0.375806,-0.05938 -0.791071,-0.08915 -1.245995,-0.08915 z"/>
        <text
                inkscape:export-ydpi="103.34703"
                inkscape:export-xdpi="103.34703"
                inkscape:export-filename="/home/awrobel/pikacloud_large.png"
                id="text2111-59-5-2-53-2-8-9"
                y="77.611801"
                x="112.40495"
                style="font-style:normal;font-weight:normal;font-size:29.669px;line-height:18.5432px;font-family:Sans;letter-spacing:0px;word-spacing:0px;fill:#3f51b5;fill-opacity:1;stroke:none;stroke-width:0.741724px;stroke-linecap:butt;stroke-linejoin:miter;stroke-opacity:1"
                xml:space="preserve"><tspan
         style="font-style:normal;font-variant:normal;font-weight:500;font-stretch:normal;font-family:Ubuntu;-inkscape-font-specification:'Ubuntu Medium';fill:#3f51b5;fill-opacity:1;stroke-width:0.741724px"
         y="77.611801"
         x="112.40495"
         id="tspan2109-2-6-8-6-3-2-1"
         sodipodi:role="line">Cloud </tspan></text>
        <path
                inkscape:export-ydpi="103.34703"
                inkscape:export-xdpi="103.34703"
                inkscape:export-filename="/home/awrobel/pikacloud.png"
                d="m 59.224878,144.41797 h -2.65e-4 a 29.56456,31.445835 0 0 0 -23.120781,11.85484 22.792745,25.561876 0 0 0 -1.878297,-0.087 22.792745,25.561876 0 0 0 -22.793067,25.56181 22.792745,25.561876 0 0 0 22.621921,25.56111 h 0.171146 51.570119 a 18.232268,20.118705 0 0 0 18.232316,-20.11777 18.232268,20.118705 0 0 0 -16.384797,-20.01502 29.56456,31.445835 0 0 0 -28.413641,-22.75797 29.56456,31.445835 0 0 0 -0.0046,0 z m 2.095272,26.20057 v 13.55876 c 0.454922,-0.47471 0.939753,-0.97905 1.454015,-1.51309 0.514263,-0.55383 1.018612,-1.09792 1.513094,-1.63196 0.494483,-0.55382 0.959078,-1.07806 1.394222,-1.57254 0.454925,-0.51425 0.840729,-0.95933 1.157198,-1.33515 H 71.0815 c -0.988968,1.10765 -2.037416,2.25513 -3.145057,3.44188 -1.087864,1.18677 -2.185646,2.34382 -3.29329,3.47124 0.593381,0.49449 1.216631,1.09749 1.869347,1.80956 0.652717,0.69227 1.28555,1.43406 1.898708,2.22523 0.613156,0.79118 1.186718,1.58231 1.720758,2.37348 0.534043,0.79118 0.979117,1.52303 1.335146,2.19553 h -4.153668 c -0.356028,-0.61317 -0.771287,-1.25594 -1.245991,-1.92844 -0.454925,-0.67249 -0.949693,-1.32519 -1.483733,-1.95813 -0.534043,-0.63294 -1.077786,-1.22638 -1.631607,-1.78019 -0.55382,-0.5736 -1.097922,-1.05808 -1.631963,-1.45366 v 7.12042 h -3.589747 v -22.42965 z m -9.950754,0.74152 c 0.593381,0 1.107665,0.19804 1.542809,0.59362 0.435147,0.39558 0.652717,0.93933 0.652717,1.63161 0,0.6725 -0.21757,1.20665 -0.652717,1.60226 -0.435144,0.39558 -0.949428,0.59327 -1.542809,0.59327 -0.613156,0 -1.137023,-0.19769 -1.572167,-0.59327 -0.435147,-0.39561 -0.652717,-0.92976 -0.652717,-1.60226 0,-0.69228 0.21757,-1.23603 0.652717,-1.63161 0.435144,-0.39558 0.959011,-0.59362 1.572167,-0.59362 z m -14.243697,1.51309 c 2.986676,0 5.27133,0.54409 6.853675,1.63196 1.602124,1.08786 2.403187,2.78902 2.403187,5.1032 0,1.20652 -0.217567,2.24468 -0.652711,3.11498 -0.415367,0.85051 -1.028676,1.55291 -1.83963,2.10673 -0.81095,0.53403 -1.799769,0.92943 -2.966749,1.18654 -1.166981,0.25715 -2.502209,0.38562 -4.005437,0.38562 h -1.869348 v 7.2393 H 31.31071 v -20.26386 c 0.870289,-0.1978 1.829294,-0.32626 2.877597,-0.38561 1.068083,-0.0791 2.047322,-0.11886 2.937392,-0.11886 z m 0.2671,3.2342 c -0.949406,0 -1.730953,0.0295 -2.344113,0.0888 v 7.0019 h 1.809912 c 1.799918,0 3.18448,-0.24702 4.153668,-0.74151 0.969184,-0.51426 1.453657,-1.47362 1.453657,-2.87795 0,-0.6725 -0.128484,-1.23648 -0.385614,-1.69141 -0.25713,-0.45492 -0.613119,-0.8109 -1.068043,-1.06805 -0.454928,-0.25712 -0.99867,-0.43494 -1.631607,-0.53384 -0.613158,-0.11866 -1.275804,-0.17794 -1.98786,-0.17794 z m 41.840998,1.6316 c 1.186759,0 2.185519,0.14836 2.996467,0.44506 0.810953,0.29669 1.454078,0.71196 1.928783,1.24598 0.494485,0.53404 0.840536,1.18675 1.038326,1.95815 0.217569,0.75161 0.326181,1.5825 0.326181,2.49235 v 9.40509 c -0.553821,0.11866 -1.39428,0.25709 -2.521704,0.41533 -1.107644,0.17802 -2.363722,0.2671 -3.768053,0.2671 -0.929627,0 -1.780027,-0.0891 -2.55142,-0.2671 -0.771393,-0.17802 -1.434036,-0.46479 -1.987859,-0.86039 -0.534041,-0.39558 -0.959242,-0.90986 -1.27571,-1.5428 -0.296691,-0.63295 -0.44505,-1.41413 -0.44505,-2.34375 0,-0.89008 0.167878,-1.64182 0.504126,-2.25496 0.356029,-0.61317 0.830919,-1.10758 1.4243,-1.48338 0.593378,-0.3956 1.2759,-0.67243 2.047293,-0.83067 0.791173,-0.178 1.611757,-0.26709 2.462268,-0.26709 0.395586,0 0.811207,0.0298 1.246349,0.0891 0.435149,0.0395 0.899736,0.11833 1.394222,0.23703 v -0.59328 c 0,-0.41536 -0.04933,-0.81074 -0.148228,-1.18656 -0.0989,-0.3758 -0.277069,-0.70233 -0.534202,-0.97925 -0.237352,-0.29668 -0.563528,-0.5242 -0.978892,-0.68242 -0.395586,-0.15824 -0.899932,-0.2374 -1.513094,-0.2374 -0.830731,0 -1.5924,0.0593 -2.284677,0.17795 -0.692277,0.11868 -1.255898,0.25747 -1.691039,0.41569 l -0.445051,-2.90767 c 0.454925,-0.15824 1.117571,-0.31653 1.987863,-0.47478 0.870288,-0.15822 1.799836,-0.23737 2.788801,-0.23737 z m -29.644235,0.38561 h 3.589748 v 15.51692 h -3.589748 z m 30.356384,8.57445 c -0.395586,0 -0.801266,0.0298 -1.216633,0.0892 -0.395587,0.0593 -0.761513,0.16793 -1.097764,0.32617 -0.316468,0.15825 -0.573432,0.38574 -0.771226,0.68244 -0.197792,0.27691 -0.296818,0.63289 -0.296818,1.06803 0,0.85053 0.267264,1.44395 0.801304,1.78021 0.534043,0.31646 1.255959,0.47476 2.165808,0.47476 1.107641,0 1.948103,-0.0592 2.521699,-0.17795 v -3.97572 c -0.19779,-0.0594 -0.484569,-0.11861 -0.860375,-0.17794 -0.375806,-0.0594 -0.79107,-0.0892 -1.245995,-0.0892 z"
                style="color:#000000;clip-rule:nonzero;display:inline;overflow:visible;visibility:visible;opacity:1;isolation:auto;color-interpolation:sRGB;color-interpolation-filters:linearRGB;solid-color:#000000;solid-opacity:1;fill:#3f51b5;fill-opacity:1;fill-rule:nonzero;stroke:none;stroke-width:0.0842169;stroke-linecap:round;stroke-linejoin:bevel;stroke-miterlimit:4;stroke-dasharray:none;stroke-dashoffset:0;stroke-opacity:1;marker:none;color-rendering:auto;image-rendering:auto;shape-rendering:auto;text-rendering:auto;enable-background:accumulate"
                id="path2160-1-1-9-2-1"/>
        <rect
                inkscape:export-ydpi="9.000001"
                inkscape:export-xdpi="9.000001"
                inkscape:export-filename="/home/awrobel/pikacloud_48.png"
                y="-32.655087"
                x="-191.74254"
                height="135.46666"
                width="135.46666"
                id="rect3171"
                style="color:#000000;overflow:visible;fill:none;stroke-width:0.0927742;stroke-linecap:round;stroke-linejoin:bevel"/>
        <path
                id="path2160-1-1-9-2-1-7"
                style="color:#000000;clip-rule:nonzero;display:inline;overflow:visible;visibility:visible;opacity:1;isolation:auto;color-interpolation:sRGB;color-interpolation-filters:linearRGB;solid-color:#000000;solid-opacity:1;fill:#3f51b5;fill-opacity:1;fill-rule:nonzero;stroke:none;stroke-width:0.118415;stroke-linecap:round;stroke-linejoin:bevel;stroke-miterlimit:4;stroke-dasharray:none;stroke-dashoffset:0;stroke-opacity:1;marker:none;color-rendering:auto;image-rendering:auto;shape-rendering:auto;text-rendering:auto;enable-background:accumulate"
                d="m -121.90762,-9.1360631 h -3.7e-4 A 41.56975,44.214948 0 0 0 -154.41735,7.532635 32.048125,35.941708 0 0 0 -157.05837,7.4103072 32.048125,35.941708 0 0 0 -189.10695,43.351919 32.048125,35.941708 0 0 0 -157.299,79.29255 h 0.24063 72.511045 a 25.635789,28.288245 0 0 0 25.635862,-28.286931 25.635789,28.288245 0 0 0 -23.038125,-28.142453 41.56975,44.214948 0 0 0 -39.951482,-31.9992291 41.56975,44.214948 0 0 0 -0.007,0 z m 2.9461,36.8397551 v 19.064533 c 0.63965,-0.667474 1.32135,-1.376623 2.04444,-2.127519 0.72308,-0.778722 1.43223,-1.543749 2.12752,-2.294645 0.69527,-0.778708 1.34851,-1.515825 1.96036,-2.211097 0.63965,-0.72307 1.18213,-1.348882 1.62711,-1.87731 h 5.96568 c -1.39055,1.55743 -2.86474,3.170864 -4.42216,4.839514 -1.5296,1.668678 -3.07317,3.295567 -4.63059,4.880809 0.83434,0.695272 1.71067,1.543131 2.62843,2.544349 0.91776,0.973378 1.80757,2.016384 2.6697,3.128836 0.86215,1.112438 1.66861,2.22482 2.41951,3.337258 0.75091,1.112466 1.37671,2.141482 1.87731,3.087062 h -5.84034 c -0.5006,-0.862158 -1.08449,-1.765922 -1.75195,-2.711516 -0.63966,-0.945566 -1.33532,-1.863306 -2.08622,-2.753248 -0.75091,-0.88997 -1.51544,-1.724386 -2.29415,-2.50308 -0.77871,-0.80652 -1.54375,-1.487731 -2.29465,-2.043943 v 10.011787 h -5.04743 V 28.537896 Z m -13.99143,1.042627 c 0.83433,0 1.55746,0.278457 2.16929,0.83467 0.61185,0.556211 0.91777,1.32076 0.91777,2.294152 0,0.945578 -0.30592,1.696632 -0.91777,2.252886 -0.61183,0.556211 -1.33496,0.834177 -2.16929,0.834177 -0.86213,0 -1.59873,-0.277966 -2.21056,-0.834177 -0.61185,-0.556254 -0.91777,-1.307308 -0.91777,-2.252886 0,-0.973392 0.30592,-1.737941 0.91777,-2.294152 0.61183,-0.556213 1.34843,-0.83467 2.21056,-0.83467 z m -20.02758,2.127507 c 4.19946,0 7.41184,0.765025 9.63672,2.294645 2.25268,1.529602 3.37904,3.921543 3.37904,7.175435 0,1.696448 -0.30592,3.15617 -0.91775,4.37987 -0.58404,1.195874 -1.44639,2.183495 -2.58664,2.962203 -1.14025,0.750882 -2.5306,1.306855 -4.17145,1.668355 -1.64086,0.36157 -3.51828,0.542208 -5.63192,0.542208 h -2.62843 v 10.17894 h -5.25584 V 31.583144 c 1.22369,-0.27812 2.57211,-0.458743 4.04609,-0.542195 1.5018,-0.111219 2.87868,-0.167123 4.13018,-0.167123 z m 0.37556,4.547496 c -1.33494,0 -2.43385,0.04148 -3.29599,0.124858 v 9.84514 h 2.54485 c 2.53081,0 4.47759,-0.347326 5.84034,-1.042598 1.36275,-0.723084 2.04394,-2.072023 2.04394,-4.046605 0,-0.94558 -0.18065,-1.738573 -0.54219,-2.378235 -0.36154,-0.639648 -0.86209,-1.14018 -1.50175,-1.50175 -0.63966,-0.361528 -1.4042,-0.611555 -2.29414,-0.750601 -0.86214,-0.166858 -1.79387,-0.250209 -2.79506,-0.250209 z m 58.831231,2.294138 c 1.668664,0 3.072987,0.208605 4.213237,0.625785 1.14025,0.417166 2.044534,1.001063 2.711994,1.751931 0.695286,0.75091 1.181856,1.66865 1.459962,2.75329 0.305918,1.056814 0.45863,2.225101 0.45863,3.504411 v 13.224185 c -0.778708,0.166844 -1.960451,0.361486 -3.545678,0.583982 -1.55743,0.250308 -3.323563,0.375561 -5.298145,0.375561 -1.307113,0 -2.502833,-0.125281 -3.587473,-0.375561 -1.084626,-0.250308 -2.016342,-0.653512 -2.795068,-1.209766 -0.75089,-0.556212 -1.34875,-1.279324 -1.79373,-2.16928 -0.41717,-0.88997 -0.62577,-1.988347 -0.62577,-3.295469 0,-1.251512 0.23605,-2.308509 0.70884,-3.170625 0.5006,-0.862144 1.16833,-1.557331 2.002662,-2.085731 0.834332,-0.55624 1.794001,-0.945482 2.878627,-1.167978 1.112452,-0.250266 2.266242,-0.375546 3.462122,-0.375546 0.556226,0 1.140615,0.0419 1.752451,0.12528 0.61185,0.05554 1.265095,0.166394 1.960367,0.333294 v -0.834191 c 0,-0.584024 -0.06932,-1.139955 -0.208422,-1.668383 -0.13906,-0.528414 -0.389564,-0.987523 -0.75112,-1.376891 -0.33373,-0.417152 -0.792361,-0.73706 -1.376385,-0.959528 -0.556226,-0.222496 -1.265362,-0.3338 -2.127512,-0.3338 -1.168062,0 -2.239021,0.08338 -3.212413,0.250209 -0.973392,0.166858 -1.765879,0.362021 -2.377715,0.584488 l -0.625772,-4.088378 c 0.63965,-0.222496 1.57138,-0.445063 2.795066,-0.667573 1.223686,-0.222467 2.530695,-0.333758 3.921245,-0.333758 z m -41.681771,0.542194 h 5.04743 v 21.817828 h -5.04743 z m 42.683102,12.05625 c -0.556212,0 -1.126626,0.0419 -1.710669,0.125422 -0.556226,0.08338 -1.070734,0.236134 -1.543524,0.458616 -0.444978,0.22251 -0.806295,0.542391 -1.084401,0.959557 -0.278106,0.389368 -0.417349,0.889899 -0.417349,1.501735 0,1.195888 0.3758,2.030291 1.126695,2.503081 0.750896,0.444964 1.76595,0.667544 3.045266,0.667544 1.557416,0 2.739173,-0.08324 3.545679,-0.25021 v -5.590128 c -0.278106,-0.08352 -0.681338,-0.166774 -1.209738,-0.250195 -0.528414,-0.08352 -1.112297,-0.125422 -1.751959,-0.125422 z"
                inkscape:export-filename="/home/awrobel/pikacloud_48.png"
                inkscape:export-xdpi="9.000001"
                inkscape:export-ydpi="9.000001"/>
    </g>
</svg>
