<?xml version="1.0" encoding="UTF-8" standalone="no"?>
<svg
        xmlns:dc="http://purl.org/dc/elements/1.1/"
        xmlns:cc="http://creativecommons.org/ns#"
        xmlns:rdf="http://www.w3.org/1999/02/22-rdf-syntax-ns#"
        xmlns:sodipodi="http://sodipodi.sourceforge.net/DTD/sodipodi-0.dtd"
        xmlns:inkscape="http://www.inkscape.org/namespaces/inkscape"
        xmlns="http://www.w3.org/2000/svg"
        sodipodi:docname="pikacloud.svg"
        inkscape:version="1.0 (4035a4fb49, 2020-05-01)"
        id="svg2550"
        version="1.1"
        viewBox="95 16 90 90"
        height="60px"
        width="170px">
    <defs
            id="defs2544"/>
    <sodipodi:namedview
            inkscape:snap-bbox-midpoints="true"
            inkscape:snap-bbox-edge-midpoints="true"
            inkscape:bbox-nodes="true"
            inkscape:bbox-paths="true"
            inkscape:snap-bbox="true"
            inkscape:window-maximized="1"
            inkscape:window-y="0"
            inkscape:window-x="0"
            inkscape:window-height="1019"
            inkscape:window-width="1920"
            showgrid="false"
            inkscape:document-rotation="0"
            inkscape:current-layer="layer1"
            inkscape:document-units="mm"
            inkscape:cy="525.68965"
            inkscape:cx="395.81581"
            inkscape:zoom="0.49497475"
            inkscape:pageshadow="2"
            inkscape:pageopacity="0.0"
            borderopacity="1.0"
            bordercolor="#666666"
            pagecolor="#ffffff"
            id="base"/>
    <metadata
            id="metadata2547">
        <rdf:RDF>
            <cc:Work
                    rdf:about="">
                <dc:format>image/svg+xml</dc:format>
                <dc:type
                        rdf:resource="http://purl.org/dc/dcmitype/StillImage"/>
                <dc:title>Pika logo</dc:title>
            </cc:Work>
        </rdf:RDF>
    </metadata>
    <g
            id="layer1"
            inkscape:groupmode="layer"
            inkscape:label="Warstwa 1">
        <path
                inkscape:export-ydpi="103.34703"
                inkscape:export-xdpi="103.34703"
                inkscape:export-filename="/home/awrobel/pikacloud_large.png"
                id="path2160-1-1-9-2"
                style="color:#fff;clip-rule:nonzero;display:inline;overflow:visible;visibility:visible;opacity:1;isolation:auto;color-interpolation:sRGB;color-interpolation-filters:linearRGB;solid-color:#000000;solid-opacity:1;fill:#0A4492;fill-opacity:1;fill-rule:nonzero;stroke:none;stroke-width:0.0842168;stroke-linecap:round;stroke-linejoin:bevel;stroke-miterlimit:4;stroke-dasharray:none;stroke-dashoffset:0;stroke-opacity:1;marker:none;color-rendering:auto;image-rendering:auto;shape-rendering:auto;text-rendering:auto;enable-background:accumulate"
                d="m 61.271182,28.388194 h -3.67e-4 a 29.564559,31.445835 0 0 0 -23.120678,11.854836 22.792745,25.561876 0 0 0 -1.878297,-0.087 22.792745,25.561876 0 0 0 -22.793067,25.56181 22.792745,25.561876 0 0 0 22.621921,25.56111 H 36.27184 87.841957 A 18.232268,20.118705 0 0 0 106.07427,71.161181 18.232268,20.118705 0 0 0 89.689477,51.146168 29.564559,31.445835 0 0 0 61.275837,28.388194 a 29.564559,31.445835 0 0 0 -0.0046,0 z m 2.095272,26.200565 v 13.558762 c 0.454923,-0.474703 0.939753,-0.979049 1.454016,-1.513092 0.514262,-0.553823 1.018611,-1.097912 1.513094,-1.631956 0.494482,-0.553823 0.959076,-1.078058 1.394221,-1.572541 0.454925,-0.514245 0.840729,-0.959324 1.157198,-1.335146 h 4.24282 c -0.988966,1.107647 -2.037415,2.255129 -3.145057,3.441877 -1.087862,1.186767 -2.185646,2.343818 -3.293288,3.471244 0.59338,0.494484 1.21663,1.097491 1.869348,1.809554 0.652716,0.692268 1.285548,1.434062 1.898706,2.225228 0.613158,0.791188 1.186717,1.582313 1.720758,2.373479 0.534042,0.791187 0.979117,1.523032 1.335145,2.195532 H 69.35975 C 69.003721,76.998536 68.588462,76.355765 68.113757,75.683265 67.658833,75.010778 67.164065,74.358072 66.630023,73.725133 66.095982,73.092187 65.552239,72.498748 64.998417,71.944941 64.444598,71.371338 63.900496,70.886865 63.366455,70.491285 V 77.6117 H 59.776708 V 55.182051 Z m -9.950753,0.741523 c 0.593381,0 1.107665,0.198039 1.54281,0.593622 0.435147,0.395582 0.652715,0.939324 0.652715,1.631607 0,0.672503 -0.217568,1.206657 -0.652715,1.602258 -0.435145,0.395583 -0.949429,0.593273 -1.54281,0.593273 -0.613157,0 -1.137024,-0.19769 -1.572169,-0.593273 -0.435145,-0.395601 -0.652714,-0.929755 -0.652714,-1.602258 0,-0.692283 0.217569,-1.236025 0.652714,-1.631607 0.435145,-0.395583 0.959012,-0.593622 1.572169,-0.593622 z m -14.243697,1.513092 c 2.986676,0 5.271328,0.544089 6.853674,1.631956 1.602124,1.087866 2.403189,2.789024 2.403189,5.103199 0,1.206529 -0.217568,2.244679 -0.652713,3.114984 -0.415366,0.850505 -1.028676,1.552908 -1.839629,2.106731 -0.810951,0.534025 -1.799771,0.929425 -2.96675,1.186544 -1.16698,0.257147 -2.502209,0.385617 -4.005436,0.385617 H 37.094991 V 77.6117 H 33.357015 V 57.347848 c 0.870289,-0.197801 1.829294,-0.32627 2.877597,-0.385611 1.068083,-0.07912 2.047322,-0.118863 2.937392,-0.118863 z m 0.2671,3.234195 c -0.949406,0 -1.730953,0.02946 -2.344113,0.0888 v 7.001902 h 1.809912 c 1.799917,0 3.184479,-0.247022 4.153666,-0.741505 0.969186,-0.514263 1.453658,-1.473624 1.453658,-2.877953 0,-0.672503 -0.128483,-1.236483 -0.385614,-1.691406 -0.25713,-0.454923 -0.613119,-0.810908 -1.068044,-1.068049 -0.454926,-0.257123 -0.998668,-0.434941 -1.631606,-0.533842 -0.613158,-0.118662 -1.275803,-0.177947 -1.987859,-0.177947 z m 41.840997,1.631607 c 1.18676,0 2.185519,0.14836 2.996466,0.445061 0.810955,0.296682 1.454079,0.711954 1.928783,1.245979 0.494487,0.534043 0.840537,1.186748 1.038327,1.958152 0.21757,0.751605 0.32618,1.582496 0.32618,2.492342 v 9.405097 c -0.55382,0.118659 -1.394279,0.257085 -2.521703,0.415327 -1.107643,0.178022 -2.363722,0.267096 -3.768053,0.267096 -0.929627,0 -1.780027,-0.08907 -2.55142,-0.267096 -0.771393,-0.178023 -1.434037,-0.46479 -1.987859,-0.86039 -0.534041,-0.39558 -0.959241,-0.90986 -1.275709,-1.542806 -0.29669,-0.632945 -0.44505,-1.414121 -0.44505,-2.343741 0,-0.890086 0.167878,-1.641822 0.504126,-2.254965 0.356028,-0.613165 0.830918,-1.107574 1.424298,-1.483378 0.59338,-0.3956 1.275902,-0.67243 2.047295,-0.83067 0.791172,-0.178002 1.611757,-0.267095 2.462267,-0.267095 0.395586,0 0.811206,0.02981 1.24635,0.08915 0.435148,0.03954 0.899737,0.118332 1.394222,0.23703 v -0.593273 c 0,-0.415363 -0.04933,-0.810744 -0.14823,-1.186565 -0.0989,-0.375803 -0.277067,-0.702329 -0.5342,-0.979251 -0.237352,-0.296682 -0.563528,-0.524199 -0.978892,-0.682421 -0.395586,-0.15824 -0.899934,-0.237397 -1.513094,-0.237397 -0.830731,0 -1.592401,0.05929 -2.284677,0.177947 -0.692277,0.11868 -1.255897,0.257471 -1.691041,0.415693 l -0.445048,-2.907668 c 0.454923,-0.158241 1.11757,-0.316536 1.98786,-0.474777 0.870289,-0.158222 1.799836,-0.237379 2.788802,-0.237379 z m -29.644234,0.38561 h 3.589747 V 77.6117 h -3.589747 z m 30.356383,8.574446 c -0.395585,0 -0.801267,0.02979 -1.216632,0.08915 -0.395586,0.05931 -0.761513,0.167935 -1.097764,0.326177 -0.316468,0.158241 -0.573432,0.385734 -0.771226,0.682436 -0.197793,0.276907 -0.296818,0.63289 -0.296818,1.068032 0,0.850524 0.267262,1.443949 0.801303,1.780206 0.534042,0.316463 1.255959,0.47476 2.165807,0.47476 1.107641,0 1.948105,-0.05924 2.521701,-0.177947 v -3.975717 c -0.19779,-0.05938 -0.48457,-0.11861 -0.860376,-0.177947 -0.375806,-0.05938 -0.791071,-0.08915 -1.245995,-0.08915 z"/>
        <text
                inkscape:export-ydpi="103.34703"
                inkscape:export-xdpi="103.34703"
                inkscape:export-filename="/home/awrobel/pikacloud_large.png"
                id="text2111-59-5-2-53-2-8-9"
                y="77.611801"
                x="112.40495"
                style="font-style:normal;font-weight:normal;font-size:25.669px;line-height:18.5432px;font-family:IBM Plex Mono;letter-spacing:0px;word-spacing:0px;fill:#0A4492;fill-opacity:1;stroke:none;stroke-width:0.741724px;stroke-linecap:butt;stroke-linejoin:miter;stroke-opacity:1"
                xml:space="preserve"><tspan
         y="77.611801"
         x="112.40495"
         id="tspan2109-2-6-8-6-3-2-1"
         sodipodi:role="line">Cloud Apps</tspan>
     </text>
    </g>
</svg>
